<svg width="765" height="685" viewBox="0 0 765 685" fill="none" xmlns="http://www.w3.org/2000/svg">
  <title>TPANA vertical logotype</title>
  <g transform="translate(210 30)">
    <rect x="0" y="0" width="345" height="345" rx="64" stroke="#DCEAF6" stroke-width="24" />
    <path d="M62 92H239V137H186V278H131V137H62V92Z" fill="#DCEAF6" />
    <path
      fill-rule="evenodd"
      clip-rule="evenodd"
      d="M202 92H259C304.438 92 331 120.861 331 160C331 199.139 304.438 228 259 228H256V278H202V92ZM256 137V183H258C277.955 183 286 171.86 286 160C286 148.14 277.955 137 258 137H256Z"
      fill="#DCEAF6"
    />
    <rect x="202" y="92" width="18" height="186" rx="9" fill="#7EC0E4" />
  </g>
  <text
    x="382.5"
    y="483"
    fill="#DCEAF6"
    font-family="Noto Sans Display, Noto Sans, DejaVu Sans, sans-serif"
    font-size="110"
    font-weight="700"
    letter-spacing="3"
    text-anchor="middle"
  >
    TPANA
  </text>
  <rect x="187" y="514" width="391" height="3" rx="1.5" fill="#7EC0E4" opacity="0.92" />
  <text
    x="382.5"
    y="573"
    fill="#DCEAF6"
    font-family="Noto Sans, DejaVu Sans, sans-serif"
    font-size="33"
    font-weight="700"
    letter-spacing="5"
    text-anchor="middle"
  >
    THEODOROS PANAGOPOULOS
  </text>
  <text
    x="382.5"
    y="627"
    fill="#AFCFEC"
    font-family="Noto Sans, DejaVu Sans, sans-serif"
    font-size="28"
    font-weight="700"
    letter-spacing="7"
    text-anchor="middle"
  >
    SOFTWARE CONSULTANTS
  </text>
</svg>
